<svg width="24" height="24" viewBox="0 0 24 24" fill="none" xmlns="http://www.w3.org/2000/svg">
<g id="Weight=Thin, Size=Big">
<path id="vector" fill-rule="evenodd" clip-rule="evenodd" d="M2.94154 4.94597C5.17735 2.61807 8.84152 2.61807 11.0773 4.94597L11.9872 5.89625L12.8965 4.94663C15.1323 2.61872 18.7971 2.61807 21.0329 4.94597L21.0344 4.94744C23.2932 7.31529 22.931 10.8866 21.0773 13.3172L21.0764 13.3184C19.1809 15.7908 16.989 17.7862 15.2767 19.161C14.4193 19.8495 13.6791 20.3848 13.1517 20.7489C12.8879 20.931 12.6772 21.0705 12.5314 21.165C12.4586 21.2122 12.4019 21.2483 12.363 21.2728L12.318 21.3009L12.3059 21.3085L12.3014 21.3112C12.3014 21.3112 12.3008 21.3116 11.9872 20.8C11.6828 21.3171 11.6825 21.3169 11.6825 21.3169L11.681 21.316L11.6774 21.3139L11.6647 21.3063L11.6179 21.2781C11.5774 21.2536 11.5185 21.2175 11.4429 21.1702C11.2918 21.0755 11.0736 20.9359 10.8015 20.7536C10.2577 20.3891 9.49742 19.8531 8.62612 19.1637C6.88695 17.7876 4.68877 15.7873 2.8886 13.3056L2.88784 13.3046C1.12688 10.866 0.672285 7.30871 2.94154 4.94597ZM11.9872 20.8L11.6825 21.3169C11.8737 21.4295 12.1122 21.4272 12.3014 21.3112L11.9872 20.8ZM11.9813 20.091C12.1091 20.007 12.2738 19.8968 12.4699 19.7614C12.9772 19.4112 13.6938 18.8931 14.5254 18.2253C16.191 16.888 18.3053 14.9604 20.1234 12.5892C21.7258 10.4878 21.9065 7.6012 20.1669 5.77664C18.4034 3.94109 15.5264 3.94118 13.7629 5.7769L12.4206 7.17876C12.3074 7.29696 12.1509 7.3638 11.9872 7.3638C11.8236 7.3638 11.6671 7.29696 11.5539 7.17876L10.2119 5.77721C8.44826 3.94122 5.57052 3.94107 3.80701 5.77721C2.07703 7.57846 2.30786 10.4512 3.86032 12.6015C5.57383 14.9636 7.68196 16.8865 9.37071 18.2227C10.2134 18.8894 10.9476 19.4069 11.4696 19.7568C11.6755 19.8947 11.8482 20.0065 11.9813 20.091Z" fill="#212124"/>
</g>
</svg>
