<svg width="24" height="24" viewBox="0 0 24 24" fill="none" xmlns="http://www.w3.org/2000/svg">
<g id="Weight=Fill, Size=Big">
<path id="vector" d="M2.79726 4.80742C5.11177 2.39757 8.90702 2.39757 11.2215 4.80742L11.2224 4.8083L11.9872 5.60705L12.7529 4.80742C15.0674 2.39757 18.8626 2.39757 21.1772 4.80742L21.179 4.80938C23.5242 7.26777 23.1318 10.953 21.2363 13.4385L21.2351 13.4401C19.3267 15.9293 17.1219 17.9359 15.4019 19.317C14.5402 20.0089 13.796 20.5471 13.2653 20.9135C12.9998 21.0968 12.7875 21.2373 12.6402 21.3328C12.5666 21.3805 12.5092 21.417 12.4695 21.442L12.4235 21.4708L12.4109 21.4787L12.4072 21.4809L12.406 21.4817C12.1538 21.6362 11.8358 21.6393 11.5809 21.4892L11.5792 21.4882L11.5754 21.4859L11.5621 21.478L11.5142 21.4491C11.4729 21.4241 11.4132 21.3875 11.3368 21.3397C11.184 21.244 10.964 21.1033 10.6902 20.9197C10.1426 20.5528 9.37805 20.0137 8.50199 19.3205C6.75443 17.9378 4.54128 15.9247 2.72667 13.4231L2.72566 13.4217C0.930009 10.935 0.438148 7.26371 2.79726 4.80742Z" fill="#212124"/>
</g>
</svg>
